<?xml version="1.0" encoding="utf-8" standalone="no"?>
<!DOCTYPE svg PUBLIC "-//W3C//DTD SVG 1.1//EN"
  "http://www.w3.org/Graphics/SVG/1.1/DTD/svg11.dtd">
<svg xmlns:xlink="http://www.w3.org/1999/xlink" width="864pt" height="432pt" viewBox="0 0 864 432" xmlns="http://www.w3.org/2000/svg" version="1.1">
 <metadata>
  <rdf:RDF xmlns:dc="http://purl.org/dc/elements/1.1/" xmlns:cc="http://creativecommons.org/ns#" xmlns:rdf="http://www.w3.org/1999/02/22-rdf-syntax-ns#">
   <cc:Work>
    <dc:type rdf:resource="http://purl.org/dc/dcmitype/StillImage"/>
    <dc:date>2025-08-29T00:40:00.450862</dc:date>
    <dc:format>image/svg+xml</dc:format>
    <dc:creator>
     <cc:Agent>
      <dc:title>Matplotlib v3.10.3, https://matplotlib.org/</dc:title>
     </cc:Agent>
    </dc:creator>
   </cc:Work>
  </rdf:RDF>
 </metadata>
 <defs>
  <style type="text/css">*{stroke-linejoin: round; stroke-linecap: butt}</style>
 </defs>
 <g id="figure_1">
  <g id="patch_1">
   <path d="M 0 432 
L 864 432 
L 864 0 
L 0 0 
z
" style="fill: #ffffff"/>
  </g>
  <g id="axes_1">
   <g id="patch_2">
    <path d="M 69.77 383.971185 
L 766.8 383.971185 
L 766.8 26.88 
L 69.77 26.88 
z
" style="fill: #ffffff"/>
   </g>
   <g id="matplotlib.axis_1">
    <g id="xtick_1">
     <g id="line2d_1">
      <defs>
       <path id="m089490a5bd" d="M 0 0 
L 0 3.5 
" style="stroke: #000000; stroke-width: 0.8"/>
      </defs>
      <g>
       <use xlink:href="#m089490a5bd" x="113.334375" y="383.971185" style="stroke: #000000; stroke-width: 0.8"/>
      </g>
     </g>
     <g id="text_1">
      <!-- VISpl -->
      <g transform="translate(106.3528 414.209587) rotate(-45) scale(0.1 -0.1)">
       <defs>
        <path id="DejaVuSans-56" d="M 1831 0 
L 50 4666 
L 709 4666 
L 2188 738 
L 3669 4666 
L 4325 4666 
L 2547 0 
L 1831 0 
z
" transform="scale(0.015625)"/>
        <path id="DejaVuSans-49" d="M 628 4666 
L 1259 4666 
L 1259 0 
L 628 0 
L 628 4666 
z
" transform="scale(0.015625)"/>
        <path id="DejaVuSans-53" d="M 3425 4513 
L 3425 3897 
Q 3066 4069 2747 4153 
Q 2428 4238 2131 4238 
Q 1616 4238 1336 4038 
Q 1056 3838 1056 3469 
Q 1056 3159 1242 3001 
Q 1428 2844 1947 2747 
L 2328 2669 
Q 3034 2534 3370 2195 
Q 3706 1856 3706 1288 
Q 3706 609 3251 259 
Q 2797 -91 1919 -91 
Q 1588 -91 1214 -16 
Q 841 59 441 206 
L 441 856 
Q 825 641 1194 531 
Q 1563 422 1919 422 
Q 2459 422 2753 634 
Q 3047 847 3047 1241 
Q 3047 1584 2836 1778 
Q 2625 1972 2144 2069 
L 1759 2144 
Q 1053 2284 737 2584 
Q 422 2884 422 3419 
Q 422 4038 858 4394 
Q 1294 4750 2059 4750 
Q 2388 4750 2728 4690 
Q 3069 4631 3425 4513 
z
" transform="scale(0.015625)"/>
        <path id="DejaVuSans-70" d="M 1159 525 
L 1159 -1331 
L 581 -1331 
L 581 3500 
L 1159 3500 
L 1159 2969 
Q 1341 3281 1617 3432 
Q 1894 3584 2278 3584 
Q 2916 3584 3314 3078 
Q 3713 2572 3713 1747 
Q 3713 922 3314 415 
Q 2916 -91 2278 -91 
Q 1894 -91 1617 61 
Q 1341 213 1159 525 
z
M 3116 1747 
Q 3116 2381 2855 2742 
Q 2594 3103 2138 3103 
Q 1681 3103 1420 2742 
Q 1159 2381 1159 1747 
Q 1159 1113 1420 752 
Q 1681 391 2138 391 
Q 2594 391 2855 752 
Q 3116 1113 3116 1747 
z
" transform="scale(0.015625)"/>
        <path id="DejaVuSans-6c" d="M 603 4863 
L 1178 4863 
L 1178 0 
L 603 0 
L 603 4863 
z
" transform="scale(0.015625)"/>
       </defs>
       <use xlink:href="#DejaVuSans-56"/>
       <use xlink:href="#DejaVuSans-49" transform="translate(68.408203 0)"/>
       <use xlink:href="#DejaVuSans-53" transform="translate(97.900391 0)"/>
       <use xlink:href="#DejaVuSans-70" transform="translate(161.376953 0)"/>
       <use xlink:href="#DejaVuSans-6c" transform="translate(224.853516 0)"/>
      </g>
     </g>
    </g>
    <g id="xtick_2">
     <g id="line2d_2">
      <g>
       <use xlink:href="#m089490a5bd" x="200.463125" y="383.971185" style="stroke: #000000; stroke-width: 0.8"/>
      </g>
     </g>
     <g id="text_2">
      <!-- VISp -->
      <g transform="translate(194.463766 412.245156) rotate(-45) scale(0.1 -0.1)">
       <use xlink:href="#DejaVuSans-56"/>
       <use xlink:href="#DejaVuSans-49" transform="translate(68.408203 0)"/>
       <use xlink:href="#DejaVuSans-53" transform="translate(97.900391 0)"/>
       <use xlink:href="#DejaVuSans-70" transform="translate(161.376953 0)"/>
      </g>
     </g>
    </g>
    <g id="xtick_3">
     <g id="line2d_3">
      <g>
       <use xlink:href="#m089490a5bd" x="287.591875" y="383.971185" style="stroke: #000000; stroke-width: 0.8"/>
      </g>
     </g>
     <g id="text_3">
      <!-- VISpor -->
      <g transform="translate(277.975775 419.478637) rotate(-45) scale(0.1 -0.1)">
       <defs>
        <path id="DejaVuSans-6f" d="M 1959 3097 
Q 1497 3097 1228 2736 
Q 959 2375 959 1747 
Q 959 1119 1226 758 
Q 1494 397 1959 397 
Q 2419 397 2687 759 
Q 2956 1122 2956 1747 
Q 2956 2369 2687 2733 
Q 2419 3097 1959 3097 
z
M 1959 3584 
Q 2709 3584 3137 3096 
Q 3566 2609 3566 1747 
Q 3566 888 3137 398 
Q 2709 -91 1959 -91 
Q 1206 -91 779 398 
Q 353 888 353 1747 
Q 353 2609 779 3096 
Q 1206 3584 1959 3584 
z
" transform="scale(0.015625)"/>
        <path id="DejaVuSans-72" d="M 2631 2963 
Q 2534 3019 2420 3045 
Q 2306 3072 2169 3072 
Q 1681 3072 1420 2755 
Q 1159 2438 1159 1844 
L 1159 0 
L 581 0 
L 581 3500 
L 1159 3500 
L 1159 2956 
Q 1341 3275 1631 3429 
Q 1922 3584 2338 3584 
Q 2397 3584 2469 3576 
Q 2541 3569 2628 3553 
L 2631 2963 
z
" transform="scale(0.015625)"/>
       </defs>
       <use xlink:href="#DejaVuSans-56"/>
       <use xlink:href="#DejaVuSans-49" transform="translate(68.408203 0)"/>
       <use xlink:href="#DejaVuSans-53" transform="translate(97.900391 0)"/>
       <use xlink:href="#DejaVuSans-70" transform="translate(161.376953 0)"/>
       <use xlink:href="#DejaVuSans-6f" transform="translate(224.853516 0)"/>
       <use xlink:href="#DejaVuSans-72" transform="translate(286.035156 0)"/>
      </g>
     </g>
    </g>
    <g id="xtick_4">
     <g id="line2d_4">
      <g>
       <use xlink:href="#m089490a5bd" x="374.720625" y="383.971185" style="stroke: #000000; stroke-width: 0.8"/>
      </g>
     </g>
     <g id="text_4">
      <!-- VISpm -->
      <g transform="translate(365.277435 419.132818) rotate(-45) scale(0.1 -0.1)">
       <defs>
        <path id="DejaVuSans-6d" d="M 3328 2828 
Q 3544 3216 3844 3400 
Q 4144 3584 4550 3584 
Q 5097 3584 5394 3201 
Q 5691 2819 5691 2113 
L 5691 0 
L 5113 0 
L 5113 2094 
Q 5113 2597 4934 2840 
Q 4756 3084 4391 3084 
Q 3944 3084 3684 2787 
Q 3425 2491 3425 1978 
L 3425 0 
L 2847 0 
L 2847 2094 
Q 2847 2600 2669 2842 
Q 2491 3084 2119 3084 
Q 1678 3084 1418 2786 
Q 1159 2488 1159 1978 
L 1159 0 
L 581 0 
L 581 3500 
L 1159 3500 
L 1159 2956 
Q 1356 3278 1631 3431 
Q 1906 3584 2284 3584 
Q 2666 3584 2933 3390 
Q 3200 3197 3328 2828 
z
" transform="scale(0.015625)"/>
       </defs>
       <use xlink:href="#DejaVuSans-56"/>
       <use xlink:href="#DejaVuSans-49" transform="translate(68.408203 0)"/>
       <use xlink:href="#DejaVuSans-53" transform="translate(97.900391 0)"/>
       <use xlink:href="#DejaVuSans-70" transform="translate(161.376953 0)"/>
       <use xlink:href="#DejaVuSans-6d" transform="translate(224.853516 0)"/>
      </g>
     </g>
    </g>
    <g id="xtick_5">
     <g id="line2d_5">
      <g>
       <use xlink:href="#m089490a5bd" x="461.849375" y="383.971185" style="stroke: #000000; stroke-width: 0.8"/>
      </g>
     </g>
     <g id="text_5">
      <!-- VISl -->
      <g transform="translate(457.112312 409.720563) rotate(-45) scale(0.1 -0.1)">
       <use xlink:href="#DejaVuSans-56"/>
       <use xlink:href="#DejaVuSans-49" transform="translate(68.408203 0)"/>
       <use xlink:href="#DejaVuSans-53" transform="translate(97.900391 0)"/>
       <use xlink:href="#DejaVuSans-6c" transform="translate(161.376953 0)"/>
      </g>
     </g>
    </g>
    <g id="xtick_6">
     <g id="line2d_6">
      <g>
       <use xlink:href="#m089490a5bd" x="548.978125" y="383.971185" style="stroke: #000000; stroke-width: 0.8"/>
      </g>
     </g>
     <g id="text_6">
      <!-- VISli -->
      <g transform="translate(543.258846 411.684994) rotate(-45) scale(0.1 -0.1)">
       <defs>
        <path id="DejaVuSans-69" d="M 603 3500 
L 1178 3500 
L 1178 0 
L 603 0 
L 603 3500 
z
M 603 4863 
L 1178 4863 
L 1178 4134 
L 603 4134 
L 603 4863 
z
" transform="scale(0.015625)"/>
       </defs>
       <use xlink:href="#DejaVuSans-56"/>
       <use xlink:href="#DejaVuSans-49" transform="translate(68.408203 0)"/>
       <use xlink:href="#DejaVuSans-53" transform="translate(97.900391 0)"/>
       <use xlink:href="#DejaVuSans-6c" transform="translate(161.376953 0)"/>
       <use xlink:href="#DejaVuSans-69" transform="translate(189.160156 0)"/>
      </g>
     </g>
    </g>
    <g id="xtick_7">
     <g id="line2d_7">
      <g>
       <use xlink:href="#m089490a5bd" x="636.106875" y="383.971185" style="stroke: #000000; stroke-width: 0.8"/>
      </g>
     </g>
     <g id="text_7">
      <!-- VISal -->
      <g transform="translate(629.203193 414.053802) rotate(-45) scale(0.1 -0.1)">
       <defs>
        <path id="DejaVuSans-61" d="M 2194 1759 
Q 1497 1759 1228 1600 
Q 959 1441 959 1056 
Q 959 750 1161 570 
Q 1363 391 1709 391 
Q 2188 391 2477 730 
Q 2766 1069 2766 1631 
L 2766 1759 
L 2194 1759 
z
M 3341 1997 
L 3341 0 
L 2766 0 
L 2766 531 
Q 2569 213 2275 61 
Q 1981 -91 1556 -91 
Q 1019 -91 701 211 
Q 384 513 384 1019 
Q 384 1609 779 1909 
Q 1175 2209 1959 2209 
L 2766 2209 
L 2766 2266 
Q 2766 2663 2505 2880 
Q 2244 3097 1772 3097 
Q 1472 3097 1187 3025 
Q 903 2953 641 2809 
L 641 3341 
Q 956 3463 1253 3523 
Q 1550 3584 1831 3584 
Q 2591 3584 2966 3190 
Q 3341 2797 3341 1997 
z
" transform="scale(0.015625)"/>
       </defs>
       <use xlink:href="#DejaVuSans-56"/>
       <use xlink:href="#DejaVuSans-49" transform="translate(68.408203 0)"/>
       <use xlink:href="#DejaVuSans-53" transform="translate(97.900391 0)"/>
       <use xlink:href="#DejaVuSans-61" transform="translate(161.376953 0)"/>
       <use xlink:href="#DejaVuSans-6c" transform="translate(222.65625 0)"/>
      </g>
     </g>
    </g>
    <g id="xtick_8">
     <g id="line2d_8">
      <g>
       <use xlink:href="#m089490a5bd" x="723.235625" y="383.971185" style="stroke: #000000; stroke-width: 0.8"/>
      </g>
     </g>
     <g id="text_8">
      <!-- VISam -->
      <g transform="translate(713.870327 418.977033) rotate(-45) scale(0.1 -0.1)">
       <use xlink:href="#DejaVuSans-56"/>
       <use xlink:href="#DejaVuSans-49" transform="translate(68.408203 0)"/>
       <use xlink:href="#DejaVuSans-53" transform="translate(97.900391 0)"/>
       <use xlink:href="#DejaVuSans-61" transform="translate(161.376953 0)"/>
       <use xlink:href="#DejaVuSans-6d" transform="translate(222.65625 0)"/>
      </g>
     </g>
    </g>
   </g>
   <g id="matplotlib.axis_2">
    <g id="ytick_1">
     <g id="line2d_9">
      <defs>
       <path id="m62f4fa0b50" d="M 0 0 
L -3.5 0 
" style="stroke: #000000; stroke-width: 0.8"/>
      </defs>
      <g>
       <use xlink:href="#m62f4fa0b50" x="69.77" y="367.983821" style="stroke: #000000; stroke-width: 0.8"/>
      </g>
     </g>
     <g id="text_9">
      <!-- 0 -->
      <g transform="translate(56.4075 371.783039) scale(0.1 -0.1)">
       <defs>
        <path id="DejaVuSans-30" d="M 2034 4250 
Q 1547 4250 1301 3770 
Q 1056 3291 1056 2328 
Q 1056 1369 1301 889 
Q 1547 409 2034 409 
Q 2525 409 2770 889 
Q 3016 1369 3016 2328 
Q 3016 3291 2770 3770 
Q 2525 4250 2034 4250 
z
M 2034 4750 
Q 2819 4750 3233 4129 
Q 3647 3509 3647 2328 
Q 3647 1150 3233 529 
Q 2819 -91 2034 -91 
Q 1250 -91 836 529 
Q 422 1150 422 2328 
Q 422 3509 836 4129 
Q 1250 4750 2034 4750 
z
" transform="scale(0.015625)"/>
       </defs>
       <use xlink:href="#DejaVuSans-30"/>
      </g>
     </g>
    </g>
    <g id="ytick_2">
     <g id="line2d_10">
      <g>
       <use xlink:href="#m62f4fa0b50" x="69.77" y="299.922262" style="stroke: #000000; stroke-width: 0.8"/>
      </g>
     </g>
     <g id="text_10">
      <!-- 20000 -->
      <g transform="translate(30.9575 303.721481) scale(0.1 -0.1)">
       <defs>
        <path id="DejaVuSans-32" d="M 1228 531 
L 3431 531 
L 3431 0 
L 469 0 
L 469 531 
Q 828 903 1448 1529 
Q 2069 2156 2228 2338 
Q 2531 2678 2651 2914 
Q 2772 3150 2772 3378 
Q 2772 3750 2511 3984 
Q 2250 4219 1831 4219 
Q 1534 4219 1204 4116 
Q 875 4013 500 3803 
L 500 4441 
Q 881 4594 1212 4672 
Q 1544 4750 1819 4750 
Q 2544 4750 2975 4387 
Q 3406 4025 3406 3419 
Q 3406 3131 3298 2873 
Q 3191 2616 2906 2266 
Q 2828 2175 2409 1742 
Q 1991 1309 1228 531 
z
" transform="scale(0.015625)"/>
       </defs>
       <use xlink:href="#DejaVuSans-32"/>
       <use xlink:href="#DejaVuSans-30" transform="translate(63.623047 0)"/>
       <use xlink:href="#DejaVuSans-30" transform="translate(127.246094 0)"/>
       <use xlink:href="#DejaVuSans-30" transform="translate(190.869141 0)"/>
       <use xlink:href="#DejaVuSans-30" transform="translate(254.492188 0)"/>
      </g>
     </g>
    </g>
    <g id="ytick_3">
     <g id="line2d_11">
      <g>
       <use xlink:href="#m62f4fa0b50" x="69.77" y="231.860704" style="stroke: #000000; stroke-width: 0.8"/>
      </g>
     </g>
     <g id="text_11">
      <!-- 40000 -->
      <g transform="translate(30.9575 235.659922) scale(0.1 -0.1)">
       <defs>
        <path id="DejaVuSans-34" d="M 2419 4116 
L 825 1625 
L 2419 1625 
L 2419 4116 
z
M 2253 4666 
L 3047 4666 
L 3047 1625 
L 3713 1625 
L 3713 1100 
L 3047 1100 
L 3047 0 
L 2419 0 
L 2419 1100 
L 313 1100 
L 313 1709 
L 2253 4666 
z
" transform="scale(0.015625)"/>
       </defs>
       <use xlink:href="#DejaVuSans-34"/>
       <use xlink:href="#DejaVuSans-30" transform="translate(63.623047 0)"/>
       <use xlink:href="#DejaVuSans-30" transform="translate(127.246094 0)"/>
       <use xlink:href="#DejaVuSans-30" transform="translate(190.869141 0)"/>
       <use xlink:href="#DejaVuSans-30" transform="translate(254.492188 0)"/>
      </g>
     </g>
    </g>
    <g id="ytick_4">
     <g id="line2d_12">
      <g>
       <use xlink:href="#m62f4fa0b50" x="69.77" y="163.799145" style="stroke: #000000; stroke-width: 0.8"/>
      </g>
     </g>
     <g id="text_12">
      <!-- 60000 -->
      <g transform="translate(30.9575 167.598364) scale(0.1 -0.1)">
       <defs>
        <path id="DejaVuSans-36" d="M 2113 2584 
Q 1688 2584 1439 2293 
Q 1191 2003 1191 1497 
Q 1191 994 1439 701 
Q 1688 409 2113 409 
Q 2538 409 2786 701 
Q 3034 994 3034 1497 
Q 3034 2003 2786 2293 
Q 2538 2584 2113 2584 
z
M 3366 4563 
L 3366 3988 
Q 3128 4100 2886 4159 
Q 2644 4219 2406 4219 
Q 1781 4219 1451 3797 
Q 1122 3375 1075 2522 
Q 1259 2794 1537 2939 
Q 1816 3084 2150 3084 
Q 2853 3084 3261 2657 
Q 3669 2231 3669 1497 
Q 3669 778 3244 343 
Q 2819 -91 2113 -91 
Q 1303 -91 875 529 
Q 447 1150 447 2328 
Q 447 3434 972 4092 
Q 1497 4750 2381 4750 
Q 2619 4750 2861 4703 
Q 3103 4656 3366 4563 
z
" transform="scale(0.015625)"/>
       </defs>
       <use xlink:href="#DejaVuSans-36"/>
       <use xlink:href="#DejaVuSans-30" transform="translate(63.623047 0)"/>
       <use xlink:href="#DejaVuSans-30" transform="translate(127.246094 0)"/>
       <use xlink:href="#DejaVuSans-30" transform="translate(190.869141 0)"/>
       <use xlink:href="#DejaVuSans-30" transform="translate(254.492188 0)"/>
      </g>
     </g>
    </g>
    <g id="ytick_5">
     <g id="line2d_13">
      <g>
       <use xlink:href="#m62f4fa0b50" x="69.77" y="95.737586" style="stroke: #000000; stroke-width: 0.8"/>
      </g>
     </g>
     <g id="text_13">
      <!-- 80000 -->
      <g transform="translate(30.9575 99.536805) scale(0.1 -0.1)">
       <defs>
        <path id="DejaVuSans-38" d="M 2034 2216 
Q 1584 2216 1326 1975 
Q 1069 1734 1069 1313 
Q 1069 891 1326 650 
Q 1584 409 2034 409 
Q 2484 409 2743 651 
Q 3003 894 3003 1313 
Q 3003 1734 2745 1975 
Q 2488 2216 2034 2216 
z
M 1403 2484 
Q 997 2584 770 2862 
Q 544 3141 544 3541 
Q 544 4100 942 4425 
Q 1341 4750 2034 4750 
Q 2731 4750 3128 4425 
Q 3525 4100 3525 3541 
Q 3525 3141 3298 2862 
Q 3072 2584 2669 2484 
Q 3125 2378 3379 2068 
Q 3634 1759 3634 1313 
Q 3634 634 3220 271 
Q 2806 -91 2034 -91 
Q 1263 -91 848 271 
Q 434 634 434 1313 
Q 434 1759 690 2068 
Q 947 2378 1403 2484 
z
M 1172 3481 
Q 1172 3119 1398 2916 
Q 1625 2713 2034 2713 
Q 2441 2713 2670 2916 
Q 2900 3119 2900 3481 
Q 2900 3844 2670 4047 
Q 2441 4250 2034 4250 
Q 1625 4250 1398 4047 
Q 1172 3844 1172 3481 
z
" transform="scale(0.015625)"/>
       </defs>
       <use xlink:href="#DejaVuSans-38"/>
       <use xlink:href="#DejaVuSans-30" transform="translate(63.623047 0)"/>
       <use xlink:href="#DejaVuSans-30" transform="translate(127.246094 0)"/>
       <use xlink:href="#DejaVuSans-30" transform="translate(190.869141 0)"/>
       <use xlink:href="#DejaVuSans-30" transform="translate(254.492188 0)"/>
      </g>
     </g>
    </g>
    <g id="ytick_6">
     <g id="line2d_14">
      <g>
       <use xlink:href="#m62f4fa0b50" x="69.77" y="27.676028" style="stroke: #000000; stroke-width: 0.8"/>
      </g>
     </g>
     <g id="text_14">
      <!-- 100000 -->
      <g transform="translate(24.595 31.475247) scale(0.1 -0.1)">
       <defs>
        <path id="DejaVuSans-31" d="M 794 531 
L 1825 531 
L 1825 4091 
L 703 3866 
L 703 4441 
L 1819 4666 
L 2450 4666 
L 2450 531 
L 3481 531 
L 3481 0 
L 794 0 
L 794 531 
z
" transform="scale(0.015625)"/>
       </defs>
       <use xlink:href="#DejaVuSans-31"/>
       <use xlink:href="#DejaVuSans-30" transform="translate(63.623047 0)"/>
       <use xlink:href="#DejaVuSans-30" transform="translate(127.246094 0)"/>
       <use xlink:href="#DejaVuSans-30" transform="translate(190.869141 0)"/>
       <use xlink:href="#DejaVuSans-30" transform="translate(254.492188 0)"/>
       <use xlink:href="#DejaVuSans-30" transform="translate(318.115234 0)"/>
      </g>
     </g>
    </g>
    <g id="text_15">
     <!-- Projection intensity in MOs (pixel intensity sum) -->
     <g transform="translate(18.515313 324.824811) rotate(-90) scale(0.1 -0.1)">
      <defs>
       <path id="DejaVuSans-50" d="M 1259 4147 
L 1259 2394 
L 2053 2394 
Q 2494 2394 2734 2622 
Q 2975 2850 2975 3272 
Q 2975 3691 2734 3919 
Q 2494 4147 2053 4147 
L 1259 4147 
z
M 628 4666 
L 2053 4666 
Q 2838 4666 3239 4311 
Q 3641 3956 3641 3272 
Q 3641 2581 3239 2228 
Q 2838 1875 2053 1875 
L 1259 1875 
L 1259 0 
L 628 0 
L 628 4666 
z
" transform="scale(0.015625)"/>
       <path id="DejaVuSans-6a" d="M 603 3500 
L 1178 3500 
L 1178 -63 
Q 1178 -731 923 -1031 
Q 669 -1331 103 -1331 
L -116 -1331 
L -116 -844 
L 38 -844 
Q 366 -844 484 -692 
Q 603 -541 603 -63 
L 603 3500 
z
M 603 4863 
L 1178 4863 
L 1178 4134 
L 603 4134 
L 603 4863 
z
" transform="scale(0.015625)"/>
       <path id="DejaVuSans-65" d="M 3597 1894 
L 3597 1613 
L 953 1613 
Q 991 1019 1311 708 
Q 1631 397 2203 397 
Q 2534 397 2845 478 
Q 3156 559 3463 722 
L 3463 178 
Q 3153 47 2828 -22 
Q 2503 -91 2169 -91 
Q 1331 -91 842 396 
Q 353 884 353 1716 
Q 353 2575 817 3079 
Q 1281 3584 2069 3584 
Q 2775 3584 3186 3129 
Q 3597 2675 3597 1894 
z
M 3022 2063 
Q 3016 2534 2758 2815 
Q 2500 3097 2075 3097 
Q 1594 3097 1305 2825 
Q 1016 2553 972 2059 
L 3022 2063 
z
" transform="scale(0.015625)"/>
       <path id="DejaVuSans-63" d="M 3122 3366 
L 3122 2828 
Q 2878 2963 2633 3030 
Q 2388 3097 2138 3097 
Q 1578 3097 1268 2742 
Q 959 2388 959 1747 
Q 959 1106 1268 751 
Q 1578 397 2138 397 
Q 2388 397 2633 464 
Q 2878 531 3122 666 
L 3122 134 
Q 2881 22 2623 -34 
Q 2366 -91 2075 -91 
Q 1284 -91 818 406 
Q 353 903 353 1747 
Q 353 2603 823 3093 
Q 1294 3584 2113 3584 
Q 2378 3584 2631 3529 
Q 2884 3475 3122 3366 
z
" transform="scale(0.015625)"/>
       <path id="DejaVuSans-74" d="M 1172 4494 
L 1172 3500 
L 2356 3500 
L 2356 3053 
L 1172 3053 
L 1172 1153 
Q 1172 725 1289 603 
Q 1406 481 1766 481 
L 2356 481 
L 2356 0 
L 1766 0 
Q 1100 0 847 248 
Q 594 497 594 1153 
L 594 3053 
L 172 3053 
L 172 3500 
L 594 3500 
L 594 4494 
L 1172 4494 
z
" transform="scale(0.015625)"/>
       <path id="DejaVuSans-6e" d="M 3513 2113 
L 3513 0 
L 2938 0 
L 2938 2094 
Q 2938 2591 2744 2837 
Q 2550 3084 2163 3084 
Q 1697 3084 1428 2787 
Q 1159 2491 1159 1978 
L 1159 0 
L 581 0 
L 581 3500 
L 1159 3500 
L 1159 2956 
Q 1366 3272 1645 3428 
Q 1925 3584 2291 3584 
Q 2894 3584 3203 3211 
Q 3513 2838 3513 2113 
z
" transform="scale(0.015625)"/>
       <path id="DejaVuSans-20" transform="scale(0.015625)"/>
       <path id="DejaVuSans-73" d="M 2834 3397 
L 2834 2853 
Q 2591 2978 2328 3040 
Q 2066 3103 1784 3103 
Q 1356 3103 1142 2972 
Q 928 2841 928 2578 
Q 928 2378 1081 2264 
Q 1234 2150 1697 2047 
L 1894 2003 
Q 2506 1872 2764 1633 
Q 3022 1394 3022 966 
Q 3022 478 2636 193 
Q 2250 -91 1575 -91 
Q 1294 -91 989 -36 
Q 684 19 347 128 
L 347 722 
Q 666 556 975 473 
Q 1284 391 1588 391 
Q 1994 391 2212 530 
Q 2431 669 2431 922 
Q 2431 1156 2273 1281 
Q 2116 1406 1581 1522 
L 1381 1569 
Q 847 1681 609 1914 
Q 372 2147 372 2553 
Q 372 3047 722 3315 
Q 1072 3584 1716 3584 
Q 2034 3584 2315 3537 
Q 2597 3491 2834 3397 
z
" transform="scale(0.015625)"/>
       <path id="DejaVuSans-79" d="M 2059 -325 
Q 1816 -950 1584 -1140 
Q 1353 -1331 966 -1331 
L 506 -1331 
L 506 -850 
L 844 -850 
Q 1081 -850 1212 -737 
Q 1344 -625 1503 -206 
L 1606 56 
L 191 3500 
L 800 3500 
L 1894 763 
L 2988 3500 
L 3597 3500 
L 2059 -325 
z
" transform="scale(0.015625)"/>
       <path id="DejaVuSans-4d" d="M 628 4666 
L 1569 4666 
L 2759 1491 
L 3956 4666 
L 4897 4666 
L 4897 0 
L 4281 0 
L 4281 4097 
L 3078 897 
L 2444 897 
L 1241 4097 
L 1241 0 
L 628 0 
L 628 4666 
z
" transform="scale(0.015625)"/>
       <path id="DejaVuSans-4f" d="M 2522 4238 
Q 1834 4238 1429 3725 
Q 1025 3213 1025 2328 
Q 1025 1447 1429 934 
Q 1834 422 2522 422 
Q 3209 422 3611 934 
Q 4013 1447 4013 2328 
Q 4013 3213 3611 3725 
Q 3209 4238 2522 4238 
z
M 2522 4750 
Q 3503 4750 4090 4092 
Q 4678 3434 4678 2328 
Q 4678 1225 4090 567 
Q 3503 -91 2522 -91 
Q 1538 -91 948 565 
Q 359 1222 359 2328 
Q 359 3434 948 4092 
Q 1538 4750 2522 4750 
z
" transform="scale(0.015625)"/>
       <path id="DejaVuSans-28" d="M 1984 4856 
Q 1566 4138 1362 3434 
Q 1159 2731 1159 2009 
Q 1159 1288 1364 580 
Q 1569 -128 1984 -844 
L 1484 -844 
Q 1016 -109 783 600 
Q 550 1309 550 2009 
Q 550 2706 781 3412 
Q 1013 4119 1484 4856 
L 1984 4856 
z
" transform="scale(0.015625)"/>
       <path id="DejaVuSans-78" d="M 3513 3500 
L 2247 1797 
L 3578 0 
L 2900 0 
L 1881 1375 
L 863 0 
L 184 0 
L 1544 1831 
L 300 3500 
L 978 3500 
L 1906 2253 
L 2834 3500 
L 3513 3500 
z
" transform="scale(0.015625)"/>
       <path id="DejaVuSans-75" d="M 544 1381 
L 544 3500 
L 1119 3500 
L 1119 1403 
Q 1119 906 1312 657 
Q 1506 409 1894 409 
Q 2359 409 2629 706 
Q 2900 1003 2900 1516 
L 2900 3500 
L 3475 3500 
L 3475 0 
L 2900 0 
L 2900 538 
Q 2691 219 2414 64 
Q 2138 -91 1772 -91 
Q 1169 -91 856 284 
Q 544 659 544 1381 
z
M 1991 3584 
L 1991 3584 
z
" transform="scale(0.015625)"/>
       <path id="DejaVuSans-29" d="M 513 4856 
L 1013 4856 
Q 1481 4119 1714 3412 
Q 1947 2706 1947 2009 
Q 1947 1309 1714 600 
Q 1481 -109 1013 -844 
L 513 -844 
Q 928 -128 1133 580 
Q 1338 1288 1338 2009 
Q 1338 2731 1133 3434 
Q 928 4138 513 4856 
z
" transform="scale(0.015625)"/>
      </defs>
      <use xlink:href="#DejaVuSans-50"/>
      <use xlink:href="#DejaVuSans-72" transform="translate(58.552734 0)"/>
      <use xlink:href="#DejaVuSans-6f" transform="translate(97.416016 0)"/>
      <use xlink:href="#DejaVuSans-6a" transform="translate(158.597656 0)"/>
      <use xlink:href="#DejaVuSans-65" transform="translate(186.380859 0)"/>
      <use xlink:href="#DejaVuSans-63" transform="translate(247.904297 0)"/>
      <use xlink:href="#DejaVuSans-74" transform="translate(302.884766 0)"/>
      <use xlink:href="#DejaVuSans-69" transform="translate(342.09375 0)"/>
      <use xlink:href="#DejaVuSans-6f" transform="translate(369.876953 0)"/>
      <use xlink:href="#DejaVuSans-6e" transform="translate(431.058594 0)"/>
      <use xlink:href="#DejaVuSans-20" transform="translate(494.4375 0)"/>
      <use xlink:href="#DejaVuSans-69" transform="translate(526.224609 0)"/>
      <use xlink:href="#DejaVuSans-6e" transform="translate(554.007812 0)"/>
      <use xlink:href="#DejaVuSans-74" transform="translate(617.386719 0)"/>
      <use xlink:href="#DejaVuSans-65" transform="translate(656.595703 0)"/>
      <use xlink:href="#DejaVuSans-6e" transform="translate(718.119141 0)"/>
      <use xlink:href="#DejaVuSans-73" transform="translate(781.498047 0)"/>
      <use xlink:href="#DejaVuSans-69" transform="translate(833.597656 0)"/>
      <use xlink:href="#DejaVuSans-74" transform="translate(861.380859 0)"/>
      <use xlink:href="#DejaVuSans-79" transform="translate(900.589844 0)"/>
      <use xlink:href="#DejaVuSans-20" transform="translate(959.769531 0)"/>
      <use xlink:href="#DejaVuSans-69" transform="translate(991.556641 0)"/>
      <use xlink:href="#DejaVuSans-6e" transform="translate(1019.339844 0)"/>
      <use xlink:href="#DejaVuSans-20" transform="translate(1082.71875 0)"/>
      <use xlink:href="#DejaVuSans-4d" transform="translate(1114.505859 0)"/>
      <use xlink:href="#DejaVuSans-4f" transform="translate(1200.785156 0)"/>
      <use xlink:href="#DejaVuSans-73" transform="translate(1279.496094 0)"/>
      <use xlink:href="#DejaVuSans-20" transform="translate(1331.595703 0)"/>
      <use xlink:href="#DejaVuSans-28" transform="translate(1363.382812 0)"/>
      <use xlink:href="#DejaVuSans-70" transform="translate(1402.396484 0)"/>
      <use xlink:href="#DejaVuSans-69" transform="translate(1465.873047 0)"/>
      <use xlink:href="#DejaVuSans-78" transform="translate(1493.65625 0)"/>
      <use xlink:href="#DejaVuSans-65" transform="translate(1549.710938 0)"/>
      <use xlink:href="#DejaVuSans-6c" transform="translate(1611.234375 0)"/>
      <use xlink:href="#DejaVuSans-20" transform="translate(1639.017578 0)"/>
      <use xlink:href="#DejaVuSans-69" transform="translate(1670.804688 0)"/>
      <use xlink:href="#DejaVuSans-6e" transform="translate(1698.587891 0)"/>
      <use xlink:href="#DejaVuSans-74" transform="translate(1761.966797 0)"/>
      <use xlink:href="#DejaVuSans-65" transform="translate(1801.175781 0)"/>
      <use xlink:href="#DejaVuSans-6e" transform="translate(1862.699219 0)"/>
      <use xlink:href="#DejaVuSans-73" transform="translate(1926.078125 0)"/>
      <use xlink:href="#DejaVuSans-69" transform="translate(1978.177734 0)"/>
      <use xlink:href="#DejaVuSans-74" transform="translate(2005.960938 0)"/>
      <use xlink:href="#DejaVuSans-79" transform="translate(2045.169922 0)"/>
      <use xlink:href="#DejaVuSans-20" transform="translate(2104.349609 0)"/>
      <use xlink:href="#DejaVuSans-73" transform="translate(2136.136719 0)"/>
      <use xlink:href="#DejaVuSans-75" transform="translate(2188.236328 0)"/>
      <use xlink:href="#DejaVuSans-6d" transform="translate(2251.615234 0)"/>
      <use xlink:href="#DejaVuSans-29" transform="translate(2349.027344 0)"/>
     </g>
    </g>
   </g>
   <g id="patch_3">
    <path d="M 91.552188 364.862985 
L 135.116563 364.862985 
L 135.116563 364.862985 
L 91.552188 364.862985 
L 91.552188 364.862985 
z
" clip-path="url(#p9c3a2f367b)" style="fill: #224fdf; stroke: #303030; stroke-linejoin: miter"/>
   </g>
   <g id="line2d_15">
    <path d="M 113.334375 364.862985 
L 113.334375 364.862985 
" clip-path="url(#p9c3a2f367b)" style="fill: none; stroke: #303030"/>
   </g>
   <g id="line2d_16">
    <path d="M 113.334375 364.862985 
L 113.334375 364.862985 
" clip-path="url(#p9c3a2f367b)" style="fill: none; stroke: #303030"/>
   </g>
   <g id="line2d_17">
    <path d="M 102.443281 364.862985 
L 124.225469 364.862985 
" clip-path="url(#p9c3a2f367b)" style="fill: none; stroke: #303030; stroke-linecap: square"/>
   </g>
   <g id="line2d_18">
    <path d="M 102.443281 364.862985 
L 124.225469 364.862985 
" clip-path="url(#p9c3a2f367b)" style="fill: none; stroke: #303030; stroke-linecap: square"/>
   </g>
   <g id="line2d_19"/>
   <g id="patch_4">
    <path d="M 178.680938 365.74227 
L 222.245313 365.74227 
L 222.245313 353.561996 
L 178.680938 353.561996 
L 178.680938 365.74227 
z
" clip-path="url(#p9c3a2f367b)" style="fill: #df7d20; stroke: #303030; stroke-linejoin: miter"/>
   </g>
   <g id="line2d_20">
    <path d="M 200.463125 365.74227 
L 200.463125 367.739768 
" clip-path="url(#p9c3a2f367b)" style="fill: none; stroke: #303030"/>
   </g>
   <g id="line2d_21">
    <path d="M 200.463125 353.561996 
L 200.463125 343.914208 
" clip-path="url(#p9c3a2f367b)" style="fill: none; stroke: #303030"/>
   </g>
   <g id="line2d_22">
    <path d="M 189.572031 367.739768 
L 211.354219 367.739768 
" clip-path="url(#p9c3a2f367b)" style="fill: none; stroke: #303030; stroke-linecap: square"/>
   </g>
   <g id="line2d_23">
    <path d="M 189.572031 343.914208 
L 211.354219 343.914208 
" clip-path="url(#p9c3a2f367b)" style="fill: none; stroke: #303030; stroke-linecap: square"/>
   </g>
   <g id="line2d_24">
    <defs>
     <path id="maa21c640be" d="M 0 3 
C 0.795609 3 1.55874 2.683901 2.12132 2.12132 
C 2.683901 1.55874 3 0.795609 3 0 
C 3 -0.795609 2.683901 -1.55874 2.12132 -2.12132 
C 1.55874 -2.683901 0.795609 -3 0 -3 
C -0.795609 -3 -1.55874 -2.683901 -2.12132 -2.12132 
C -2.683901 -1.55874 -3 -0.795609 -3 0 
C -3 0.795609 -2.683901 1.55874 -2.12132 2.12132 
C -1.55874 2.683901 -0.795609 3 0 3 
z
" style="stroke: #303030"/>
    </defs>
    <g clip-path="url(#p9c3a2f367b)">
     <use xlink:href="#maa21c640be" x="200.463125" y="279.494331" style="fill-opacity: 0; stroke: #303030"/>
    </g>
   </g>
   <g id="patch_5">
    <path d="M 265.809688 361.068177 
L 309.374063 361.068177 
L 309.374063 354.017564 
L 265.809688 354.017564 
L 265.809688 361.068177 
z
" clip-path="url(#p9c3a2f367b)" style="fill: #30b346; stroke: #303030; stroke-linejoin: miter"/>
   </g>
   <g id="line2d_25">
    <path d="M 287.591875 361.068177 
L 287.591875 364.593484 
" clip-path="url(#p9c3a2f367b)" style="fill: none; stroke: #303030"/>
   </g>
   <g id="line2d_26">
    <path d="M 287.591875 354.017564 
L 287.591875 350.492258 
" clip-path="url(#p9c3a2f367b)" style="fill: none; stroke: #303030"/>
   </g>
   <g id="line2d_27">
    <path d="M 276.700781 364.593484 
L 298.482969 364.593484 
" clip-path="url(#p9c3a2f367b)" style="fill: none; stroke: #303030; stroke-linecap: square"/>
   </g>
   <g id="line2d_28">
    <path d="M 276.700781 350.492258 
L 298.482969 350.492258 
" clip-path="url(#p9c3a2f367b)" style="fill: none; stroke: #303030; stroke-linecap: square"/>
   </g>
   <g id="line2d_29"/>
   <g id="patch_6">
    <path d="M 352.938438 319.33511 
L 396.502813 319.33511 
L 396.502813 319.33511 
L 352.938438 319.33511 
L 352.938438 319.33511 
z
" clip-path="url(#p9c3a2f367b)" style="fill: #cb1d25; stroke: #303030; stroke-linejoin: miter"/>
   </g>
   <g id="line2d_30">
    <path d="M 374.720625 319.33511 
L 374.720625 319.33511 
" clip-path="url(#p9c3a2f367b)" style="fill: none; stroke: #303030"/>
   </g>
   <g id="line2d_31">
    <path d="M 374.720625 319.33511 
L 374.720625 319.33511 
" clip-path="url(#p9c3a2f367b)" style="fill: none; stroke: #303030"/>
   </g>
   <g id="line2d_32">
    <path d="M 363.829531 319.33511 
L 385.611719 319.33511 
" clip-path="url(#p9c3a2f367b)" style="fill: none; stroke: #303030; stroke-linecap: square"/>
   </g>
   <g id="line2d_33">
    <path d="M 363.829531 319.33511 
L 385.611719 319.33511 
" clip-path="url(#p9c3a2f367b)" style="fill: none; stroke: #303030; stroke-linecap: square"/>
   </g>
   <g id="line2d_34"/>
   <g id="patch_7">
    <path d="M 440.067188 332.832203 
L 483.631563 332.832203 
L 483.631563 287.17133 
L 440.067188 287.17133 
L 440.067188 332.832203 
z
" clip-path="url(#p9c3a2f367b)" style="fill: #8a42cb; stroke: #303030; stroke-linejoin: miter"/>
   </g>
   <g id="line2d_35">
    <path d="M 461.849375 332.832203 
L 461.849375 354.29794 
" clip-path="url(#p9c3a2f367b)" style="fill: none; stroke: #303030"/>
   </g>
   <g id="line2d_36">
    <path d="M 461.849375 287.17133 
L 461.849375 225.105875 
" clip-path="url(#p9c3a2f367b)" style="fill: none; stroke: #303030"/>
   </g>
   <g id="line2d_37">
    <path d="M 450.958281 354.29794 
L 472.740469 354.29794 
" clip-path="url(#p9c3a2f367b)" style="fill: none; stroke: #303030; stroke-linecap: square"/>
   </g>
   <g id="line2d_38">
    <path d="M 450.958281 225.105875 
L 472.740469 225.105875 
" clip-path="url(#p9c3a2f367b)" style="fill: none; stroke: #303030; stroke-linecap: square"/>
   </g>
   <g id="line2d_39"/>
   <g id="patch_8">
    <path d="M 527.195938 300.16123 
L 570.760313 300.16123 
L 570.760313 279.904731 
L 527.195938 279.904731 
L 527.195938 300.16123 
z
" clip-path="url(#p9c3a2f367b)" style="fill: #8b4a14; stroke: #303030; stroke-linejoin: miter"/>
   </g>
   <g id="line2d_40">
    <path d="M 548.978125 300.16123 
L 548.978125 310.289479 
" clip-path="url(#p9c3a2f367b)" style="fill: none; stroke: #303030"/>
   </g>
   <g id="line2d_41">
    <path d="M 548.978125 279.904731 
L 548.978125 269.776481 
" clip-path="url(#p9c3a2f367b)" style="fill: none; stroke: #303030"/>
   </g>
   <g id="line2d_42">
    <path d="M 538.087031 310.289479 
L 559.869219 310.289479 
" clip-path="url(#p9c3a2f367b)" style="fill: none; stroke: #303030; stroke-linecap: square"/>
   </g>
   <g id="line2d_43">
    <path d="M 538.087031 269.776481 
L 559.869219 269.776481 
" clip-path="url(#p9c3a2f367b)" style="fill: none; stroke: #303030; stroke-linecap: square"/>
   </g>
   <g id="line2d_44"/>
   <g id="patch_9">
    <path d="M 614.324688 280.61047 
L 657.889063 280.61047 
L 657.889063 280.61047 
L 614.324688 280.61047 
L 614.324688 280.61047 
z
" clip-path="url(#p9c3a2f367b)" style="fill: #dc61b8; stroke: #303030; stroke-linejoin: miter"/>
   </g>
   <g id="line2d_45">
    <path d="M 636.106875 280.61047 
L 636.106875 280.61047 
" clip-path="url(#p9c3a2f367b)" style="fill: none; stroke: #303030"/>
   </g>
   <g id="line2d_46">
    <path d="M 636.106875 280.61047 
L 636.106875 280.61047 
" clip-path="url(#p9c3a2f367b)" style="fill: none; stroke: #303030"/>
   </g>
   <g id="line2d_47">
    <path d="M 625.215781 280.61047 
L 646.997969 280.61047 
" clip-path="url(#p9c3a2f367b)" style="fill: none; stroke: #303030; stroke-linecap: square"/>
   </g>
   <g id="line2d_48">
    <path d="M 625.215781 280.61047 
L 646.997969 280.61047 
" clip-path="url(#p9c3a2f367b)" style="fill: none; stroke: #303030; stroke-linecap: square"/>
   </g>
   <g id="line2d_49"/>
   <g id="patch_10">
    <path d="M 701.453438 127.589689 
L 745.017813 127.589689 
L 745.017813 72.265645 
L 701.453438 72.265645 
L 701.453438 127.589689 
z
" clip-path="url(#p9c3a2f367b)" style="fill: #a3a3a3; stroke: #303030; stroke-linejoin: miter"/>
   </g>
   <g id="line2d_50">
    <path d="M 723.235625 127.589689 
L 723.235625 153.759506 
" clip-path="url(#p9c3a2f367b)" style="fill: none; stroke: #303030"/>
   </g>
   <g id="line2d_51">
    <path d="M 723.235625 72.265645 
L 723.235625 43.111418 
" clip-path="url(#p9c3a2f367b)" style="fill: none; stroke: #303030"/>
   </g>
   <g id="line2d_52">
    <path d="M 712.344531 153.759506 
L 734.126719 153.759506 
" clip-path="url(#p9c3a2f367b)" style="fill: none; stroke: #303030; stroke-linecap: square"/>
   </g>
   <g id="line2d_53">
    <path d="M 712.344531 43.111418 
L 734.126719 43.111418 
" clip-path="url(#p9c3a2f367b)" style="fill: none; stroke: #303030; stroke-linecap: square"/>
   </g>
   <g id="line2d_54"/>
   <g id="line2d_55">
    <path d="M 91.552188 364.862985 
L 135.116563 364.862985 
" clip-path="url(#p9c3a2f367b)" style="fill: none; stroke: #303030"/>
   </g>
   <g id="line2d_56">
    <path d="M 178.680938 362.846713 
L 222.245313 362.846713 
" clip-path="url(#p9c3a2f367b)" style="fill: none; stroke: #303030"/>
   </g>
   <g id="line2d_57">
    <path d="M 265.809688 357.542871 
L 309.374063 357.542871 
" clip-path="url(#p9c3a2f367b)" style="fill: none; stroke: #303030"/>
   </g>
   <g id="line2d_58">
    <path d="M 352.938438 319.33511 
L 396.502813 319.33511 
" clip-path="url(#p9c3a2f367b)" style="fill: none; stroke: #303030"/>
   </g>
   <g id="line2d_59">
    <path d="M 440.067188 316.768386 
L 483.631563 316.768386 
" clip-path="url(#p9c3a2f367b)" style="fill: none; stroke: #303030"/>
   </g>
   <g id="line2d_60">
    <path d="M 527.195938 290.03298 
L 570.760313 290.03298 
" clip-path="url(#p9c3a2f367b)" style="fill: none; stroke: #303030"/>
   </g>
   <g id="line2d_61">
    <path d="M 614.324688 280.61047 
L 657.889063 280.61047 
" clip-path="url(#p9c3a2f367b)" style="fill: none; stroke: #303030"/>
   </g>
   <g id="line2d_62">
    <path d="M 701.453438 101.419872 
L 745.017813 101.419872 
" clip-path="url(#p9c3a2f367b)" style="fill: none; stroke: #303030"/>
   </g>
   <g id="patch_11">
    <path d="M 69.77 383.971185 
L 69.77 26.88 
" style="fill: none; stroke: #000000; stroke-width: 0.8; stroke-linejoin: miter; stroke-linecap: square"/>
   </g>
   <g id="patch_12">
    <path d="M 766.8 383.971185 
L 766.8 26.88 
" style="fill: none; stroke: #000000; stroke-width: 0.8; stroke-linejoin: miter; stroke-linecap: square"/>
   </g>
   <g id="patch_13">
    <path d="M 69.77 383.971185 
L 766.8 383.971185 
" style="fill: none; stroke: #000000; stroke-width: 0.8; stroke-linejoin: miter; stroke-linecap: square"/>
   </g>
   <g id="patch_14">
    <path d="M 69.77 26.88 
L 766.8 26.88 
" style="fill: none; stroke: #000000; stroke-width: 0.8; stroke-linejoin: miter; stroke-linecap: square"/>
   </g>
   <g id="PathCollection_1">
    <defs>
     <path id="mb5ef5aa96c" d="M 0 2.5 
C 0.663008 2.5 1.29895 2.236584 1.767767 1.767767 
C 2.236584 1.29895 2.5 0.663008 2.5 0 
C 2.5 -0.663008 2.236584 -1.29895 1.767767 -1.767767 
C 1.29895 -2.236584 0.663008 -2.5 0 -2.5 
C -0.663008 -2.5 -1.29895 -2.236584 -1.767767 -1.767767 
C -2.236584 -1.29895 -2.5 -0.663008 -2.5 0 
C -2.5 0.663008 -2.236584 1.29895 -1.767767 1.767767 
C -1.29895 2.236584 -0.663008 2.5 0 2.5 
z
"/>
    </defs>
    <g clip-path="url(#p9c3a2f367b)">
     <use xlink:href="#mb5ef5aa96c" x="113.334375" y="364.862985" style="fill-opacity: 0.7"/>
    </g>
   </g>
   <g id="PathCollection_2">
    <g clip-path="url(#p9c3a2f367b)">
     <use xlink:href="#mb5ef5aa96c" x="203.830109" y="362.846713" style="fill-opacity: 0.7"/>
     <use xlink:href="#mb5ef5aa96c" x="196.561284" y="279.494331" style="fill-opacity: 0.7"/>
     <use xlink:href="#mb5ef5aa96c" x="200.749382" y="349.765919" style="fill-opacity: 0.7"/>
     <use xlink:href="#mb5ef5aa96c" x="206.406779" y="366.344319" style="fill-opacity: 0.7"/>
     <use xlink:href="#mb5ef5aa96c" x="196.740986" y="363.121117" style="fill-opacity: 0.7"/>
     <use xlink:href="#mb5ef5aa96c" x="193.54014" y="364.996116" style="fill-opacity: 0.7"/>
     <use xlink:href="#mb5ef5aa96c" x="207.33548" y="353.908318" style="fill-opacity: 0.7"/>
     <use xlink:href="#mb5ef5aa96c" x="206.182074" y="365.284702" style="fill-opacity: 0.7"/>
     <use xlink:href="#mb5ef5aa96c" x="198.268265" y="347.769669" style="fill-opacity: 0.7"/>
     <use xlink:href="#mb5ef5aa96c" x="201.327394" y="367.454822" style="fill-opacity: 0.7"/>
     <use xlink:href="#mb5ef5aa96c" x="200.212075" y="363.208536" style="fill-opacity: 0.7"/>
     <use xlink:href="#mb5ef5aa96c" x="203.401799" y="345.595145" style="fill-opacity: 0.7"/>
     <use xlink:href="#mb5ef5aa96c" x="192.2221" y="363.998993" style="fill-opacity: 0.7"/>
     <use xlink:href="#mb5ef5aa96c" x="204.777087" y="360.702627" style="fill-opacity: 0.7"/>
     <use xlink:href="#mb5ef5aa96c" x="200.336296" y="362.706438" style="fill-opacity: 0.7"/>
     <use xlink:href="#mb5ef5aa96c" x="208.767048" y="356.259202" style="fill-opacity: 0.7"/>
     <use xlink:href="#mb5ef5aa96c" x="198.594452" y="345.240792" style="fill-opacity: 0.7"/>
     <use xlink:href="#mb5ef5aa96c" x="193.327102" y="353.561996" style="fill-opacity: 0.7"/>
     <use xlink:href="#mb5ef5aa96c" x="207.761629" y="366.064915" style="fill-opacity: 0.7"/>
     <use xlink:href="#mb5ef5aa96c" x="205.145967" y="357.599592" style="fill-opacity: 0.7"/>
     <use xlink:href="#mb5ef5aa96c" x="196.176412" y="350.357518" style="fill-opacity: 0.7"/>
     <use xlink:href="#mb5ef5aa96c" x="203.464995" y="353.357886" style="fill-opacity: 0.7"/>
     <use xlink:href="#mb5ef5aa96c" x="202.804533" y="365.260201" style="fill-opacity: 0.7"/>
     <use xlink:href="#mb5ef5aa96c" x="205.207627" y="365.027198" style="fill-opacity: 0.7"/>
     <use xlink:href="#mb5ef5aa96c" x="195.327292" y="343.914208" style="fill-opacity: 0.7"/>
     <use xlink:href="#mb5ef5aa96c" x="193.32002" y="362.207822" style="fill-opacity: 0.7"/>
     <use xlink:href="#mb5ef5aa96c" x="199.104557" y="366.53352" style="fill-opacity: 0.7"/>
     <use xlink:href="#mb5ef5aa96c" x="192.175386" y="365.74227" style="fill-opacity: 0.7"/>
     <use xlink:href="#mb5ef5aa96c" x="193.516862" y="366.531878" style="fill-opacity: 0.7"/>
     <use xlink:href="#mb5ef5aa96c" x="200.671717" y="367.368145" style="fill-opacity: 0.7"/>
     <use xlink:href="#mb5ef5aa96c" x="201.117017" y="367.699059" style="fill-opacity: 0.7"/>
     <use xlink:href="#mb5ef5aa96c" x="206.709512" y="356.491785" style="fill-opacity: 0.7"/>
     <use xlink:href="#mb5ef5aa96c" x="193.574658" y="367.739768" style="fill-opacity: 0.7"/>
    </g>
   </g>
   <g id="PathCollection_3">
    <g clip-path="url(#p9c3a2f367b)">
     <use xlink:href="#mb5ef5aa96c" x="290.316649" y="364.593484" style="fill-opacity: 0.7"/>
     <use xlink:href="#mb5ef5aa96c" x="291.617896" y="350.492258" style="fill-opacity: 0.7"/>
    </g>
   </g>
   <g id="PathCollection_4">
    <g clip-path="url(#p9c3a2f367b)">
     <use xlink:href="#mb5ef5aa96c" x="374.720625" y="319.33511" style="fill-opacity: 0.7"/>
    </g>
   </g>
   <g id="PathCollection_5">
    <g clip-path="url(#p9c3a2f367b)">
     <use xlink:href="#mb5ef5aa96c" x="459.155159" y="225.105875" style="fill-opacity: 0.7"/>
     <use xlink:href="#mb5ef5aa96c" x="462.619045" y="307.859814" style="fill-opacity: 0.7"/>
     <use xlink:href="#mb5ef5aa96c" x="465.754997" y="354.29794" style="fill-opacity: 0.7"/>
     <use xlink:href="#mb5ef5aa96c" x="466.301912" y="325.676957" style="fill-opacity: 0.7"/>
    </g>
   </g>
   <g id="PathCollection_6">
    <g clip-path="url(#p9c3a2f367b)">
     <use xlink:href="#mb5ef5aa96c" x="543.761676" y="269.776481" style="fill-opacity: 0.7"/>
     <use xlink:href="#mb5ef5aa96c" x="540.953147" y="310.289479" style="fill-opacity: 0.7"/>
    </g>
   </g>
   <g id="PathCollection_7">
    <g clip-path="url(#p9c3a2f367b)">
     <use xlink:href="#mb5ef5aa96c" x="636.106875" y="280.61047" style="fill-opacity: 0.7"/>
    </g>
   </g>
   <g id="PathCollection_8">
    <g clip-path="url(#p9c3a2f367b)">
     <use xlink:href="#mb5ef5aa96c" x="725.941332" y="153.759506" style="fill-opacity: 0.7"/>
     <use xlink:href="#mb5ef5aa96c" x="722.371655" y="101.419872" style="fill-opacity: 0.7"/>
     <use xlink:href="#mb5ef5aa96c" x="725.151737" y="43.111418" style="fill-opacity: 0.7"/>
    </g>
   </g>
   <g id="text_16">
    <!-- MOs projection strength for VIS subregions (sorted by median) -->
    <g transform="translate(230.354688 20.88) scale(0.12 -0.12)">
     <defs>
      <path id="DejaVuSans-67" d="M 2906 1791 
Q 2906 2416 2648 2759 
Q 2391 3103 1925 3103 
Q 1463 3103 1205 2759 
Q 947 2416 947 1791 
Q 947 1169 1205 825 
Q 1463 481 1925 481 
Q 2391 481 2648 825 
Q 2906 1169 2906 1791 
z
M 3481 434 
Q 3481 -459 3084 -895 
Q 2688 -1331 1869 -1331 
Q 1566 -1331 1297 -1286 
Q 1028 -1241 775 -1147 
L 775 -588 
Q 1028 -725 1275 -790 
Q 1522 -856 1778 -856 
Q 2344 -856 2625 -561 
Q 2906 -266 2906 331 
L 2906 616 
Q 2728 306 2450 153 
Q 2172 0 1784 0 
Q 1141 0 747 490 
Q 353 981 353 1791 
Q 353 2603 747 3093 
Q 1141 3584 1784 3584 
Q 2172 3584 2450 3431 
Q 2728 3278 2906 2969 
L 2906 3500 
L 3481 3500 
L 3481 434 
z
" transform="scale(0.015625)"/>
      <path id="DejaVuSans-68" d="M 3513 2113 
L 3513 0 
L 2938 0 
L 2938 2094 
Q 2938 2591 2744 2837 
Q 2550 3084 2163 3084 
Q 1697 3084 1428 2787 
Q 1159 2491 1159 1978 
L 1159 0 
L 581 0 
L 581 4863 
L 1159 4863 
L 1159 2956 
Q 1366 3272 1645 3428 
Q 1925 3584 2291 3584 
Q 2894 3584 3203 3211 
Q 3513 2838 3513 2113 
z
" transform="scale(0.015625)"/>
      <path id="DejaVuSans-66" d="M 2375 4863 
L 2375 4384 
L 1825 4384 
Q 1516 4384 1395 4259 
Q 1275 4134 1275 3809 
L 1275 3500 
L 2222 3500 
L 2222 3053 
L 1275 3053 
L 1275 0 
L 697 0 
L 697 3053 
L 147 3053 
L 147 3500 
L 697 3500 
L 697 3744 
Q 697 4328 969 4595 
Q 1241 4863 1831 4863 
L 2375 4863 
z
" transform="scale(0.015625)"/>
      <path id="DejaVuSans-62" d="M 3116 1747 
Q 3116 2381 2855 2742 
Q 2594 3103 2138 3103 
Q 1681 3103 1420 2742 
Q 1159 2381 1159 1747 
Q 1159 1113 1420 752 
Q 1681 391 2138 391 
Q 2594 391 2855 752 
Q 3116 1113 3116 1747 
z
M 1159 2969 
Q 1341 3281 1617 3432 
Q 1894 3584 2278 3584 
Q 2916 3584 3314 3078 
Q 3713 2572 3713 1747 
Q 3713 922 3314 415 
Q 2916 -91 2278 -91 
Q 1894 -91 1617 61 
Q 1341 213 1159 525 
L 1159 0 
L 581 0 
L 581 4863 
L 1159 4863 
L 1159 2969 
z
" transform="scale(0.015625)"/>
      <path id="DejaVuSans-64" d="M 2906 2969 
L 2906 4863 
L 3481 4863 
L 3481 0 
L 2906 0 
L 2906 525 
Q 2725 213 2448 61 
Q 2172 -91 1784 -91 
Q 1150 -91 751 415 
Q 353 922 353 1747 
Q 353 2572 751 3078 
Q 1150 3584 1784 3584 
Q 2172 3584 2448 3432 
Q 2725 3281 2906 2969 
z
M 947 1747 
Q 947 1113 1208 752 
Q 1469 391 1925 391 
Q 2381 391 2643 752 
Q 2906 1113 2906 1747 
Q 2906 2381 2643 2742 
Q 2381 3103 1925 3103 
Q 1469 3103 1208 2742 
Q 947 2381 947 1747 
z
" transform="scale(0.015625)"/>
     </defs>
     <use xlink:href="#DejaVuSans-4d"/>
     <use xlink:href="#DejaVuSans-4f" transform="translate(86.279297 0)"/>
     <use xlink:href="#DejaVuSans-73" transform="translate(164.990234 0)"/>
     <use xlink:href="#DejaVuSans-20" transform="translate(217.089844 0)"/>
     <use xlink:href="#DejaVuSans-70" transform="translate(248.876953 0)"/>
     <use xlink:href="#DejaVuSans-72" transform="translate(312.353516 0)"/>
     <use xlink:href="#DejaVuSans-6f" transform="translate(351.216797 0)"/>
     <use xlink:href="#DejaVuSans-6a" transform="translate(412.398438 0)"/>
     <use xlink:href="#DejaVuSans-65" transform="translate(440.181641 0)"/>
     <use xlink:href="#DejaVuSans-63" transform="translate(501.705078 0)"/>
     <use xlink:href="#DejaVuSans-74" transform="translate(556.685547 0)"/>
     <use xlink:href="#DejaVuSans-69" transform="translate(595.894531 0)"/>
     <use xlink:href="#DejaVuSans-6f" transform="translate(623.677734 0)"/>
     <use xlink:href="#DejaVuSans-6e" transform="translate(684.859375 0)"/>
     <use xlink:href="#DejaVuSans-20" transform="translate(748.238281 0)"/>
     <use xlink:href="#DejaVuSans-73" transform="translate(780.025391 0)"/>
     <use xlink:href="#DejaVuSans-74" transform="translate(832.125 0)"/>
     <use xlink:href="#DejaVuSans-72" transform="translate(871.333984 0)"/>
     <use xlink:href="#DejaVuSans-65" transform="translate(910.197266 0)"/>
     <use xlink:href="#DejaVuSans-6e" transform="translate(971.720703 0)"/>
     <use xlink:href="#DejaVuSans-67" transform="translate(1035.099609 0)"/>
     <use xlink:href="#DejaVuSans-74" transform="translate(1098.576172 0)"/>
     <use xlink:href="#DejaVuSans-68" transform="translate(1137.785156 0)"/>
     <use xlink:href="#DejaVuSans-20" transform="translate(1201.164062 0)"/>
     <use xlink:href="#DejaVuSans-66" transform="translate(1232.951172 0)"/>
     <use xlink:href="#DejaVuSans-6f" transform="translate(1268.15625 0)"/>
     <use xlink:href="#DejaVuSans-72" transform="translate(1329.337891 0)"/>
     <use xlink:href="#DejaVuSans-20" transform="translate(1370.451172 0)"/>
     <use xlink:href="#DejaVuSans-56" transform="translate(1402.238281 0)"/>
     <use xlink:href="#DejaVuSans-49" transform="translate(1470.646484 0)"/>
     <use xlink:href="#DejaVuSans-53" transform="translate(1500.138672 0)"/>
     <use xlink:href="#DejaVuSans-20" transform="translate(1563.615234 0)"/>
     <use xlink:href="#DejaVuSans-73" transform="translate(1595.402344 0)"/>
     <use xlink:href="#DejaVuSans-75" transform="translate(1647.501953 0)"/>
     <use xlink:href="#DejaVuSans-62" transform="translate(1710.880859 0)"/>
     <use xlink:href="#DejaVuSans-72" transform="translate(1774.357422 0)"/>
     <use xlink:href="#DejaVuSans-65" transform="translate(1813.220703 0)"/>
     <use xlink:href="#DejaVuSans-67" transform="translate(1874.744141 0)"/>
     <use xlink:href="#DejaVuSans-69" transform="translate(1938.220703 0)"/>
     <use xlink:href="#DejaVuSans-6f" transform="translate(1966.003906 0)"/>
     <use xlink:href="#DejaVuSans-6e" transform="translate(2027.185547 0)"/>
     <use xlink:href="#DejaVuSans-73" transform="translate(2090.564453 0)"/>
     <use xlink:href="#DejaVuSans-20" transform="translate(2142.664062 0)"/>
     <use xlink:href="#DejaVuSans-28" transform="translate(2174.451172 0)"/>
     <use xlink:href="#DejaVuSans-73" transform="translate(2213.464844 0)"/>
     <use xlink:href="#DejaVuSans-6f" transform="translate(2265.564453 0)"/>
     <use xlink:href="#DejaVuSans-72" transform="translate(2326.746094 0)"/>
     <use xlink:href="#DejaVuSans-74" transform="translate(2367.859375 0)"/>
     <use xlink:href="#DejaVuSans-65" transform="translate(2407.068359 0)"/>
     <use xlink:href="#DejaVuSans-64" transform="translate(2468.591797 0)"/>
     <use xlink:href="#DejaVuSans-20" transform="translate(2532.068359 0)"/>
     <use xlink:href="#DejaVuSans-62" transform="translate(2563.855469 0)"/>
     <use xlink:href="#DejaVuSans-79" transform="translate(2627.332031 0)"/>
     <use xlink:href="#DejaVuSans-20" transform="translate(2686.511719 0)"/>
     <use xlink:href="#DejaVuSans-6d" transform="translate(2718.298828 0)"/>
     <use xlink:href="#DejaVuSans-65" transform="translate(2815.710938 0)"/>
     <use xlink:href="#DejaVuSans-64" transform="translate(2877.234375 0)"/>
     <use xlink:href="#DejaVuSans-69" transform="translate(2940.710938 0)"/>
     <use xlink:href="#DejaVuSans-61" transform="translate(2968.494141 0)"/>
     <use xlink:href="#DejaVuSans-6e" transform="translate(3029.773438 0)"/>
     <use xlink:href="#DejaVuSans-29" transform="translate(3093.152344 0)"/>
    </g>
   </g>
  </g>
  <g id="text_17">
   <!-- VISpl: 1 exp -->
   <g transform="translate(820.8 179.370469) scale(0.1 -0.1)">
    <defs>
     <path id="DejaVuSansMono-56" d="M 1925 531 
L 3022 4666 
L 3675 4666 
L 2309 0 
L 1544 0 
L 178 4666 
L 831 4666 
L 1925 531 
z
" transform="scale(0.015625)"/>
     <path id="DejaVuSansMono-49" d="M 628 4666 
L 3219 4666 
L 3219 4134 
L 2241 4134 
L 2241 531 
L 3219 531 
L 3219 0 
L 628 0 
L 628 531 
L 1606 531 
L 1606 4134 
L 628 4134 
L 628 4666 
z
" transform="scale(0.015625)"/>
     <path id="DejaVuSansMono-53" d="M 3163 4506 
L 3163 3866 
Q 2875 4050 2586 4144 
Q 2297 4238 2003 4238 
Q 1556 4238 1297 4030 
Q 1038 3822 1038 3469 
Q 1038 3159 1208 2996 
Q 1378 2834 1844 2725 
L 2175 2650 
Q 2831 2497 3131 2169 
Q 3431 1841 3431 1275 
Q 3431 609 3018 259 
Q 2606 -91 1819 -91 
Q 1491 -91 1159 -20 
Q 828 50 494 191 
L 494 863 
Q 853 634 1173 528 
Q 1494 422 1819 422 
Q 2297 422 2562 636 
Q 2828 850 2828 1234 
Q 2828 1584 2645 1768 
Q 2463 1953 2009 2053 
L 1672 2131 
Q 1022 2278 728 2575 
Q 434 2872 434 3372 
Q 434 3997 854 4373 
Q 1275 4750 1972 4750 
Q 2241 4750 2537 4689 
Q 2834 4628 3163 4506 
z
" transform="scale(0.015625)"/>
     <path id="DejaVuSansMono-70" d="M 1172 441 
L 1172 -1331 
L 594 -1331 
L 594 3500 
L 1172 3500 
L 1172 3053 
Q 1316 3313 1555 3448 
Q 1794 3584 2106 3584 
Q 2741 3584 3102 3093 
Q 3463 2603 3463 1734 
Q 3463 881 3100 395 
Q 2738 -91 2106 -91 
Q 1788 -91 1548 45 
Q 1309 181 1172 441 
z
M 2859 1747 
Q 2859 2416 2648 2756 
Q 2438 3097 2022 3097 
Q 1603 3097 1387 2755 
Q 1172 2413 1172 1747 
Q 1172 1084 1387 740 
Q 1603 397 2022 397 
Q 2438 397 2648 737 
Q 2859 1078 2859 1747 
z
" transform="scale(0.015625)"/>
     <path id="DejaVuSansMono-6c" d="M 1997 1269 
Q 1997 881 2139 684 
Q 2281 488 2559 488 
L 3231 488 
L 3231 0 
L 2503 0 
Q 1988 0 1705 331 
Q 1422 663 1422 1269 
L 1422 4447 
L 500 4447 
L 500 4897 
L 1997 4897 
L 1997 1269 
z
" transform="scale(0.015625)"/>
     <path id="DejaVuSansMono-3a" d="M 1528 3322 
L 2316 3322 
L 2316 2375 
L 1528 2375 
L 1528 3322 
z
M 1528 953 
L 2316 953 
L 2316 0 
L 1528 0 
L 1528 953 
z
" transform="scale(0.015625)"/>
     <path id="DejaVuSansMono-20" transform="scale(0.015625)"/>
     <path id="DejaVuSansMono-31" d="M 844 531 
L 1825 531 
L 1825 4097 
L 769 3859 
L 769 4434 
L 1819 4666 
L 2450 4666 
L 2450 531 
L 3419 531 
L 3419 0 
L 844 0 
L 844 531 
z
" transform="scale(0.015625)"/>
     <path id="DejaVuSansMono-65" d="M 3475 1894 
L 3475 1613 
L 984 1613 
L 984 1594 
Q 984 1022 1282 709 
Q 1581 397 2125 397 
Q 2400 397 2700 484 
Q 3000 572 3341 750 
L 3341 178 
Q 3013 44 2708 -23 
Q 2403 -91 2119 -91 
Q 1303 -91 843 398 
Q 384 888 384 1747 
Q 384 2584 834 3084 
Q 1284 3584 2034 3584 
Q 2703 3584 3089 3131 
Q 3475 2678 3475 1894 
z
M 2900 2063 
Q 2888 2569 2661 2833 
Q 2434 3097 2009 3097 
Q 1594 3097 1325 2822 
Q 1056 2547 1006 2059 
L 2900 2063 
z
" transform="scale(0.015625)"/>
     <path id="DejaVuSansMono-78" d="M 3494 3500 
L 2241 1825 
L 3616 0 
L 2950 0 
L 1925 1403 
L 903 0 
L 238 0 
L 1613 1825 
L 359 3500 
L 997 3500 
L 1925 2234 
L 2847 3500 
L 3494 3500 
z
" transform="scale(0.015625)"/>
    </defs>
    <use xlink:href="#DejaVuSansMono-56"/>
    <use xlink:href="#DejaVuSansMono-49" transform="translate(60.205078 0)"/>
    <use xlink:href="#DejaVuSansMono-53" transform="translate(120.410156 0)"/>
    <use xlink:href="#DejaVuSansMono-70" transform="translate(180.615234 0)"/>
    <use xlink:href="#DejaVuSansMono-6c" transform="translate(240.820312 0)"/>
    <use xlink:href="#DejaVuSansMono-3a" transform="translate(301.025391 0)"/>
    <use xlink:href="#DejaVuSansMono-20" transform="translate(361.230469 0)"/>
    <use xlink:href="#DejaVuSansMono-31" transform="translate(421.435547 0)"/>
    <use xlink:href="#DejaVuSansMono-20" transform="translate(481.640625 0)"/>
    <use xlink:href="#DejaVuSansMono-65" transform="translate(541.845703 0)"/>
    <use xlink:href="#DejaVuSansMono-78" transform="translate(602.050781 0)"/>
    <use xlink:href="#DejaVuSansMono-70" transform="translate(662.255859 0)"/>
   </g>
   <!-- VISp: 33 exp -->
   <g transform="translate(820.8 190.632031) scale(0.1 -0.1)">
    <defs>
     <path id="DejaVuSansMono-33" d="M 2425 2497 
Q 2884 2375 3128 2064 
Q 3372 1753 3372 1288 
Q 3372 644 2939 276 
Q 2506 -91 1741 -91 
Q 1419 -91 1084 -31 
Q 750 28 428 141 
L 428 769 
Q 747 603 1056 522 
Q 1366 441 1672 441 
Q 2191 441 2469 675 
Q 2747 909 2747 1350 
Q 2747 1756 2469 1995 
Q 2191 2234 1716 2234 
L 1234 2234 
L 1234 2753 
L 1716 2753 
Q 2150 2753 2394 2943 
Q 2638 3134 2638 3475 
Q 2638 3834 2411 4026 
Q 2184 4219 1766 4219 
Q 1488 4219 1191 4156 
Q 894 4094 569 3969 
L 569 4550 
Q 947 4650 1242 4700 
Q 1538 4750 1766 4750 
Q 2447 4750 2855 4408 
Q 3263 4066 3263 3500 
Q 3263 3116 3048 2859 
Q 2834 2603 2425 2497 
z
" transform="scale(0.015625)"/>
    </defs>
    <use xlink:href="#DejaVuSansMono-56"/>
    <use xlink:href="#DejaVuSansMono-49" transform="translate(60.205078 0)"/>
    <use xlink:href="#DejaVuSansMono-53" transform="translate(120.410156 0)"/>
    <use xlink:href="#DejaVuSansMono-70" transform="translate(180.615234 0)"/>
    <use xlink:href="#DejaVuSansMono-3a" transform="translate(240.820312 0)"/>
    <use xlink:href="#DejaVuSansMono-20" transform="translate(301.025391 0)"/>
    <use xlink:href="#DejaVuSansMono-33" transform="translate(361.230469 0)"/>
    <use xlink:href="#DejaVuSansMono-33" transform="translate(421.435547 0)"/>
    <use xlink:href="#DejaVuSansMono-20" transform="translate(481.640625 0)"/>
    <use xlink:href="#DejaVuSansMono-65" transform="translate(541.845703 0)"/>
    <use xlink:href="#DejaVuSansMono-78" transform="translate(602.050781 0)"/>
    <use xlink:href="#DejaVuSansMono-70" transform="translate(662.255859 0)"/>
   </g>
   <!-- VISpor: 2 exp -->
   <g transform="translate(820.8 201.893594) scale(0.1 -0.1)">
    <defs>
     <path id="DejaVuSansMono-6f" d="M 1925 3097 
Q 1488 3097 1263 2756 
Q 1038 2416 1038 1747 
Q 1038 1081 1263 739 
Q 1488 397 1925 397 
Q 2366 397 2591 739 
Q 2816 1081 2816 1747 
Q 2816 2416 2591 2756 
Q 2366 3097 1925 3097 
z
M 1925 3584 
Q 2653 3584 3039 3112 
Q 3425 2641 3425 1747 
Q 3425 850 3040 379 
Q 2656 -91 1925 -91 
Q 1197 -91 812 379 
Q 428 850 428 1747 
Q 428 2641 812 3112 
Q 1197 3584 1925 3584 
z
" transform="scale(0.015625)"/>
     <path id="DejaVuSansMono-72" d="M 3609 2778 
Q 3425 2922 3234 2987 
Q 3044 3053 2816 3053 
Q 2278 3053 1993 2715 
Q 1709 2378 1709 1741 
L 1709 0 
L 1131 0 
L 1131 3500 
L 1709 3500 
L 1709 2816 
Q 1853 3188 2151 3386 
Q 2450 3584 2859 3584 
Q 3072 3584 3256 3531 
Q 3441 3478 3609 3366 
L 3609 2778 
z
" transform="scale(0.015625)"/>
     <path id="DejaVuSansMono-32" d="M 1166 531 
L 3309 531 
L 3309 0 
L 475 0 
L 475 531 
Q 1059 1147 1496 1619 
Q 1934 2091 2100 2284 
Q 2413 2666 2522 2902 
Q 2631 3138 2631 3384 
Q 2631 3775 2401 3997 
Q 2172 4219 1772 4219 
Q 1488 4219 1175 4116 
Q 863 4013 513 3803 
L 513 4441 
Q 834 4594 1145 4672 
Q 1456 4750 1759 4750 
Q 2444 4750 2861 4386 
Q 3278 4022 3278 3431 
Q 3278 3131 3139 2831 
Q 3000 2531 2688 2169 
Q 2513 1966 2180 1606 
Q 1847 1247 1166 531 
z
" transform="scale(0.015625)"/>
    </defs>
    <use xlink:href="#DejaVuSansMono-56"/>
    <use xlink:href="#DejaVuSansMono-49" transform="translate(60.205078 0)"/>
    <use xlink:href="#DejaVuSansMono-53" transform="translate(120.410156 0)"/>
    <use xlink:href="#DejaVuSansMono-70" transform="translate(180.615234 0)"/>
    <use xlink:href="#DejaVuSansMono-6f" transform="translate(240.820312 0)"/>
    <use xlink:href="#DejaVuSansMono-72" transform="translate(301.025391 0)"/>
    <use xlink:href="#DejaVuSansMono-3a" transform="translate(361.230469 0)"/>
    <use xlink:href="#DejaVuSansMono-20" transform="translate(421.435547 0)"/>
    <use xlink:href="#DejaVuSansMono-32" transform="translate(481.640625 0)"/>
    <use xlink:href="#DejaVuSansMono-20" transform="translate(541.845703 0)"/>
    <use xlink:href="#DejaVuSansMono-65" transform="translate(602.050781 0)"/>
    <use xlink:href="#DejaVuSansMono-78" transform="translate(662.255859 0)"/>
    <use xlink:href="#DejaVuSansMono-70" transform="translate(722.460938 0)"/>
   </g>
   <!-- VISpm: 1 exp -->
   <g transform="translate(820.8 213.155156) scale(0.1 -0.1)">
    <defs>
     <path id="DejaVuSansMono-6d" d="M 2113 3144 
Q 2219 3369 2383 3476 
Q 2547 3584 2778 3584 
Q 3200 3584 3373 3257 
Q 3547 2931 3547 2028 
L 3547 0 
L 3022 0 
L 3022 2003 
Q 3022 2744 2939 2923 
Q 2856 3103 2638 3103 
Q 2388 3103 2295 2911 
Q 2203 2719 2203 2003 
L 2203 0 
L 1678 0 
L 1678 2003 
Q 1678 2753 1589 2928 
Q 1500 3103 1269 3103 
Q 1041 3103 952 2911 
Q 863 2719 863 2003 
L 863 0 
L 341 0 
L 341 3500 
L 863 3500 
L 863 3200 
Q 966 3388 1120 3486 
Q 1275 3584 1472 3584 
Q 1709 3584 1867 3475 
Q 2025 3366 2113 3144 
z
" transform="scale(0.015625)"/>
    </defs>
    <use xlink:href="#DejaVuSansMono-56"/>
    <use xlink:href="#DejaVuSansMono-49" transform="translate(60.205078 0)"/>
    <use xlink:href="#DejaVuSansMono-53" transform="translate(120.410156 0)"/>
    <use xlink:href="#DejaVuSansMono-70" transform="translate(180.615234 0)"/>
    <use xlink:href="#DejaVuSansMono-6d" transform="translate(240.820312 0)"/>
    <use xlink:href="#DejaVuSansMono-3a" transform="translate(301.025391 0)"/>
    <use xlink:href="#DejaVuSansMono-20" transform="translate(361.230469 0)"/>
    <use xlink:href="#DejaVuSansMono-31" transform="translate(421.435547 0)"/>
    <use xlink:href="#DejaVuSansMono-20" transform="translate(481.640625 0)"/>
    <use xlink:href="#DejaVuSansMono-65" transform="translate(541.845703 0)"/>
    <use xlink:href="#DejaVuSansMono-78" transform="translate(602.050781 0)"/>
    <use xlink:href="#DejaVuSansMono-70" transform="translate(662.255859 0)"/>
   </g>
   <!-- VISl: 4 exp -->
   <g transform="translate(820.8 224.416719) scale(0.1 -0.1)">
    <defs>
     <path id="DejaVuSansMono-34" d="M 2297 4091 
L 825 1625 
L 2297 1625 
L 2297 4091 
z
M 2194 4666 
L 2925 4666 
L 2925 1625 
L 3547 1625 
L 3547 1113 
L 2925 1113 
L 2925 0 
L 2297 0 
L 2297 1113 
L 319 1113 
L 319 1709 
L 2194 4666 
z
" transform="scale(0.015625)"/>
    </defs>
    <use xlink:href="#DejaVuSansMono-56"/>
    <use xlink:href="#DejaVuSansMono-49" transform="translate(60.205078 0)"/>
    <use xlink:href="#DejaVuSansMono-53" transform="translate(120.410156 0)"/>
    <use xlink:href="#DejaVuSansMono-6c" transform="translate(180.615234 0)"/>
    <use xlink:href="#DejaVuSansMono-3a" transform="translate(240.820312 0)"/>
    <use xlink:href="#DejaVuSansMono-20" transform="translate(301.025391 0)"/>
    <use xlink:href="#DejaVuSansMono-34" transform="translate(361.230469 0)"/>
    <use xlink:href="#DejaVuSansMono-20" transform="translate(421.435547 0)"/>
    <use xlink:href="#DejaVuSansMono-65" transform="translate(481.640625 0)"/>
    <use xlink:href="#DejaVuSansMono-78" transform="translate(541.845703 0)"/>
    <use xlink:href="#DejaVuSansMono-70" transform="translate(602.050781 0)"/>
   </g>
   <!-- VISli: 2 exp -->
   <g transform="translate(820.8 235.678281) scale(0.1 -0.1)">
    <defs>
     <path id="DejaVuSansMono-69" d="M 800 3500 
L 2272 3500 
L 2272 447 
L 3413 447 
L 3413 0 
L 556 0 
L 556 447 
L 1697 447 
L 1697 3053 
L 800 3053 
L 800 3500 
z
M 1697 4863 
L 2272 4863 
L 2272 4134 
L 1697 4134 
L 1697 4863 
z
" transform="scale(0.015625)"/>
    </defs>
    <use xlink:href="#DejaVuSansMono-56"/>
    <use xlink:href="#DejaVuSansMono-49" transform="translate(60.205078 0)"/>
    <use xlink:href="#DejaVuSansMono-53" transform="translate(120.410156 0)"/>
    <use xlink:href="#DejaVuSansMono-6c" transform="translate(180.615234 0)"/>
    <use xlink:href="#DejaVuSansMono-69" transform="translate(240.820312 0)"/>
    <use xlink:href="#DejaVuSansMono-3a" transform="translate(301.025391 0)"/>
    <use xlink:href="#DejaVuSansMono-20" transform="translate(361.230469 0)"/>
    <use xlink:href="#DejaVuSansMono-32" transform="translate(421.435547 0)"/>
    <use xlink:href="#DejaVuSansMono-20" transform="translate(481.640625 0)"/>
    <use xlink:href="#DejaVuSansMono-65" transform="translate(541.845703 0)"/>
    <use xlink:href="#DejaVuSansMono-78" transform="translate(602.050781 0)"/>
    <use xlink:href="#DejaVuSansMono-70" transform="translate(662.255859 0)"/>
   </g>
   <!-- VISal: 1 exp -->
   <g transform="translate(820.8 246.939844) scale(0.1 -0.1)">
    <defs>
     <path id="DejaVuSansMono-61" d="M 2194 1759 
L 2003 1759 
Q 1500 1759 1245 1582 
Q 991 1406 991 1056 
Q 991 741 1181 566 
Q 1372 391 1709 391 
Q 2184 391 2456 720 
Q 2728 1050 2731 1631 
L 2731 1759 
L 2194 1759 
z
M 3309 1997 
L 3309 0 
L 2731 0 
L 2731 519 
Q 2547 206 2267 57 
Q 1988 -91 1588 -91 
Q 1053 -91 734 211 
Q 416 513 416 1019 
Q 416 1603 808 1906 
Q 1200 2209 1959 2209 
L 2731 2209 
L 2731 2300 
Q 2728 2719 2518 2908 
Q 2309 3097 1850 3097 
Q 1556 3097 1256 3012 
Q 956 2928 672 2766 
L 672 3341 
Q 991 3463 1283 3523 
Q 1575 3584 1850 3584 
Q 2284 3584 2592 3456 
Q 2900 3328 3091 3072 
Q 3209 2916 3259 2686 
Q 3309 2456 3309 1997 
z
" transform="scale(0.015625)"/>
    </defs>
    <use xlink:href="#DejaVuSansMono-56"/>
    <use xlink:href="#DejaVuSansMono-49" transform="translate(60.205078 0)"/>
    <use xlink:href="#DejaVuSansMono-53" transform="translate(120.410156 0)"/>
    <use xlink:href="#DejaVuSansMono-61" transform="translate(180.615234 0)"/>
    <use xlink:href="#DejaVuSansMono-6c" transform="translate(240.820312 0)"/>
    <use xlink:href="#DejaVuSansMono-3a" transform="translate(301.025391 0)"/>
    <use xlink:href="#DejaVuSansMono-20" transform="translate(361.230469 0)"/>
    <use xlink:href="#DejaVuSansMono-31" transform="translate(421.435547 0)"/>
    <use xlink:href="#DejaVuSansMono-20" transform="translate(481.640625 0)"/>
    <use xlink:href="#DejaVuSansMono-65" transform="translate(541.845703 0)"/>
    <use xlink:href="#DejaVuSansMono-78" transform="translate(602.050781 0)"/>
    <use xlink:href="#DejaVuSansMono-70" transform="translate(662.255859 0)"/>
   </g>
   <!-- VISam: 3 exp -->
   <g transform="translate(820.8 258.201406) scale(0.1 -0.1)">
    <use xlink:href="#DejaVuSansMono-56"/>
    <use xlink:href="#DejaVuSansMono-49" transform="translate(60.205078 0)"/>
    <use xlink:href="#DejaVuSansMono-53" transform="translate(120.410156 0)"/>
    <use xlink:href="#DejaVuSansMono-61" transform="translate(180.615234 0)"/>
    <use xlink:href="#DejaVuSansMono-6d" transform="translate(240.820312 0)"/>
    <use xlink:href="#DejaVuSansMono-3a" transform="translate(301.025391 0)"/>
    <use xlink:href="#DejaVuSansMono-20" transform="translate(361.230469 0)"/>
    <use xlink:href="#DejaVuSansMono-33" transform="translate(421.435547 0)"/>
    <use xlink:href="#DejaVuSansMono-20" transform="translate(481.640625 0)"/>
    <use xlink:href="#DejaVuSansMono-65" transform="translate(541.845703 0)"/>
    <use xlink:href="#DejaVuSansMono-78" transform="translate(602.050781 0)"/>
    <use xlink:href="#DejaVuSansMono-70" transform="translate(662.255859 0)"/>
   </g>
  </g>
 </g>
 <defs>
  <clipPath id="p9c3a2f367b">
   <rect x="69.77" y="26.88" width="697.03" height="357.091185"/>
  </clipPath>
 </defs>
</svg>
